<?xml version="1.0" encoding="UTF-8" standalone="no"?>
<svg width="29px" height="31px" viewBox="0 0 29 31" version="1.1" xmlns="http://www.w3.org/2000/svg" xmlns:xlink="http://www.w3.org/1999/xlink">
    <!-- Generator: Sketch 48.1 (47250) - http://www.bohemiancoding.com/sketch -->
    <title>Slice 1</title>
    <desc>Created with Sketch.</desc>
    <defs></defs>
    <g id="Page-1" stroke="none" stroke-width="1" fill="none" fill-rule="evenodd">
        <g id="alert" fill="#000000" fill-rule="nonzero">
            <path d="M13.981,0.14 L0.5,7.679 L0.5,22.833 L13.981,30.371 L28.5,22.854 L28.5,7.657 L13.981,0.14 Z M26.5,21.638 L14.019,28.1 L2.5,21.659 L2.5,8.852 L14.019,2.412 L26.5,8.874 L26.5,21.638 Z" id="Shape"></path>
            <path d="M12.5,9.5 L12.5,15.5 C12.5,16.012 12.695,16.523 13.086,16.914 C13.477,17.305 13.988,17.5 14.5,17.5 C15.012,17.5 15.523,17.305 15.914,16.914 C16.305,16.523 16.5,16.012 16.5,15.5 L16.5,9.5 C16.5,8.988 16.305,8.476 15.914,8.086 C15.523,7.695 15.012,7.5 14.5,7.5 C13.988,7.5 13.477,7.695 13.086,8.086 C12.695,8.476 12.5,8.988 12.5,9.5 Z" id="Shape"></path>
            <circle id="Oval" cx="14.5" cy="21.5" r="2"></circle>
        </g>
    </g>
</svg>