<?xml version="1.0" encoding="UTF-8" standalone="no"?>
<svg width="94px" height="48px" viewBox="0 0 94 48" version="1.1" xmlns="http://www.w3.org/2000/svg" xmlns:xlink="http://www.w3.org/1999/xlink">
    <!-- Generator: Sketch 48.1 (47250) - http://www.bohemiancoding.com/sketch -->
    <title>Shape</title>
    <desc>Created with Sketch.</desc>
    <defs></defs>
    <g id="Page-1" stroke="none" stroke-width="1" fill="none" fill-rule="evenodd">
        <g id="banana" fill="#FFFFFF" fill-rule="nonzero">
            <path d="M91.893,0.124 L82.268,0.124 C81.512,0.124 80.825,0.548 80.481,1.224 C78.397,5.408 78.364,8.54 78.34,11.06 C78.309,13.576 78.3,14.836 76.397,16.372 C67.917,23.2 57.325,26.664 44.933,26.664 C26.017,26.664 16.009,17.388 12.473,13.224 C10.977,10.552 8.701,9.024 6.189,9.024 C4.385,9.024 2.681,9.812 1.505,11.188 C0.401,12.48 -0.083,14.164 0.169,15.808 C0.68,19.092 6.284,47.876 44.44,47.876 C69.552,47.876 80.68,37.428 85.08,31.195 C90.019,24.195 91.363,15.768 88.82,7.967 C89.32,6.871 91.312,4.979 93.044,3.767 C93.76,3.267 94.068,2.355 93.805,1.523 C93.532,0.692 92.756,0.124 91.893,0.124 Z M78.893,27.496 C69.688,34.912 58.252,38.672 44.92,38.672 C28.956,38.672 18.768,32.604 13.032,27.512 C12.204,26.776 12.128,25.512 12.864,24.688 C13.596,23.86 14.864,23.789 15.688,24.52 C20.904,29.153 30.212,34.672 44.92,34.672 C57.316,34.672 67.908,31.208 76.384,24.38 C77.244,23.688 78.5,23.824 79.196,24.684 C79.893,25.54 79.752,26.8 78.893,27.496 Z" id="Shape"></path>
        </g>
    </g>
</svg>