<?xml version="1.0" encoding="UTF-8" standalone="no"?>
<svg width="84px" height="40px" viewBox="0 0 84 40" version="1.1" xmlns="http://www.w3.org/2000/svg" xmlns:xlink="http://www.w3.org/1999/xlink">
    <!-- Generator: Sketch 48.1 (47250) - http://www.bohemiancoding.com/sketch -->
    <title>Slice 1</title>
    <desc>Created with Sketch.</desc>
    <defs></defs>
    <g id="Page-1" stroke="none" stroke-width="1" fill="none" fill-rule="evenodd">
        <g id="change" fill="#000000" fill-rule="nonzero">
            <g id="Group">
                <path d="M32.873,2.053 C34.883,4.759 37.861,6.003 40.488,7.981 C40.404,7.327 40.319,6.672 40.235,6.018 C37.546,8.268 34.908,10.56 32.873,13.438 C31.94,14.758 34.109,16.005 35.031,14.7 C36.931,12.013 39.496,9.883 42.003,7.785 C42.681,7.218 42.336,6.264 41.75,5.822 C39.524,4.145 36.734,3.082 35.031,0.79 C34.081,-0.487 31.909,0.757 32.873,2.053 Z" id="Shape"></path>
                <path d="M37.746,6.075 C25.102,5.923 6.787,2.655 1.431,17.906 C-0.418,23.173 1.368,28.883 5.244,32.66 C10.051,37.344 17.929,35.277 23.834,35.135 C25.443,35.096 25.447,32.596 23.834,32.635 C19.127,32.749 14.431,33.761 9.797,32.493 C2.453,30.484 2.227,20.947 5.19,15.57 C11.088,4.868 27.921,8.457 37.746,8.575 C39.359,8.594 39.357,6.094 37.746,6.075 Z" id="Shape"></path>
                <path d="M51.127,37.948 C49.117,35.242 46.138,33.998 43.513,32.018 C43.597,32.672 43.681,33.327 43.766,33.981 C46.455,31.733 49.093,29.441 51.127,26.562 C52.06,25.242 49.891,23.995 48.969,25.3 C47.07,27.988 44.505,30.117 41.998,32.213 C41.319,32.78 41.665,33.734 42.251,34.176 C44.476,35.854 47.266,36.918 48.969,39.209 C49.918,40.488 52.09,39.244 51.127,37.948 Z" id="Shape"></path>
                <path d="M46.254,33.926 C58.898,34.077 77.214,37.344 82.569,22.095 C84.419,16.828 82.633,11.118 78.756,7.341 C73.948,2.656 66.071,4.723 60.165,4.866 C58.556,4.905 58.552,7.405 60.165,7.366 C64.872,7.252 69.568,6.24 74.202,7.507 C81.547,9.516 81.772,19.052 78.808,24.429 C72.91,35.13 56.077,31.543 46.252,31.425 C44.641,31.407 44.643,33.907 46.254,33.926 Z" id="Shape"></path>
            </g>
        </g>
    </g>
</svg>