<?xml version="1.0" encoding="UTF-8" standalone="no"?>
<svg width="89px" height="89px" viewBox="0 0 89 89" version="1.1" xmlns="http://www.w3.org/2000/svg" xmlns:xlink="http://www.w3.org/1999/xlink">
    <!-- Generator: Sketch 48.1 (47250) - http://www.bohemiancoding.com/sketch -->
    <title>Slice 1</title>
    <desc>Created with Sketch.</desc>
    <defs></defs>
    <g id="Page-1" stroke="none" stroke-width="1" fill="none" fill-rule="evenodd">
        <g id="close-kopia" fill="#FFFFFF" fill-rule="nonzero">
            <path d="M44.5,0.5 C20.238,0.5 0.5,20.238 0.5,44.5 C0.5,68.762 20.238,88.5 44.5,88.5 C68.762,88.5 88.5,68.762 88.5,44.5 C88.5,20.238 68.762,0.5 44.5,0.5 Z M44.5,80.5 C24.648,80.5 8.5,64.35 8.5,44.5 C8.5,24.65 24.648,8.5 44.5,8.5 C64.35,8.5 80.5,24.65 80.5,44.5 C80.5,64.35 64.35,80.5 44.5,80.5 Z M57.672,25.674 L44.5,38.844 L31.328,25.674 L25.672,31.33 L38.844,44.5 L25.672,57.672 L31.328,63.328 L44.5,50.156 L57.672,63.328 L63.328,57.672 L50.156,44.5 L63.328,31.33 L57.672,25.674 Z" id="Shape"></path>
        </g>
    </g>
</svg>