<svg xmlns="http://www.w3.org/2000/svg" xmlns:xlink="http://www.w3.org/1999/xlink" version="1.1" x="0px" y="0px" viewBox="0 0 100 125" enable-background="new 0 0 100 100" xml:space="preserve"><path d="M50.5,5.5c-24.262,0-44,19.738-44,44s19.738,44,44,44s44-19.738,44-44S74.762,5.5,50.5,5.5z M50.5,85.5  c-19.852,0-36-16.15-36-36s16.148-36,36-36c19.85,0,36,16.15,36,36S70.35,85.5,50.5,85.5z M63.672,30.674L50.5,43.844l-13.172-13.17  l-5.656,5.656L44.844,49.5L31.672,62.672l5.656,5.656L50.5,55.156l13.172,13.172l5.656-5.656L56.156,49.5l13.172-13.17  L63.672,30.674z"/><text x="0" y="115" fill="#000000" font-size="5px" font-weight="bold" font-family="'Helvetica Neue', Helvetica, Arial-Unicode, Arial, Sans-serif">Created by Sergey Demushkin</text><text x="0" y="120" fill="#000000" font-size="5px" font-weight="bold" font-family="'Helvetica Neue', Helvetica, Arial-Unicode, Arial, Sans-serif">from the Noun Project</text></svg>