<?xml version="1.0" encoding="UTF-8" standalone="no"?>
<svg width="24px" height="24px" viewBox="0 0 24 24" version="1.1" xmlns="http://www.w3.org/2000/svg" xmlns:xlink="http://www.w3.org/1999/xlink">
    <!-- Generator: Sketch 48.1 (47250) - http://www.bohemiancoding.com/sketch -->
    <title>Slice 1</title>
    <desc>Created with Sketch.</desc>
    <defs></defs>
    <g id="Page-1" stroke="none" stroke-width="1" fill="none" fill-rule="evenodd">
        <g id="drag" fill="#000000" fill-rule="nonzero">
            <g id="Group">
                <path d="M15.55,23.94 L9.5,23.94 C9.224,23.94 9,23.716 9,23.44 C9,22.062 10.122,20.94 11.5,20.94 L12.293,20.94 L8.47,17.117 C8.175,16.822 8.012,16.43 8.012,16.013 C8.012,15.596 8.175,15.204 8.47,14.909 C9.059,14.321 10.087,14.319 10.677,14.909 L11.573,15.805 C11.649,15.634 11.756,15.474 11.896,15.335 C12.243,14.988 12.74,14.825 13.218,14.893 C13.275,14.597 13.417,14.314 13.646,14.085 C14.083,13.648 14.715,13.524 15.263,13.715 C15.336,13.485 15.464,13.268 15.646,13.085 C16.254,12.477 17.245,12.477 17.853,13.085 L19.403,14.635 C20.433,15.666 21,17.034 21,18.49 C21,21.495 18.555,23.94 15.55,23.94 Z M10.085,22.94 L15.55,22.94 C18.004,22.94 20,20.944 20,18.49 C20,17.302 19.537,16.184 18.697,15.344 L17.147,13.794 C16.928,13.575 16.573,13.575 16.354,13.794 C16.135,14.013 16.135,14.368 16.354,14.587 C16.452,14.685 16.5,14.813 16.5,14.941 C16.5,15.069 16.451,15.197 16.354,15.295 C16.159,15.49 15.842,15.49 15.647,15.295 L15.147,14.795 C14.928,14.576 14.573,14.576 14.354,14.795 C14.248,14.901 14.19,15.042 14.19,15.191 C14.19,15.34 14.248,15.482 14.354,15.587 L14.854,16.087 C14.951,16.184 15,16.312 15,16.44 C15,16.568 14.951,16.696 14.854,16.794 C14.659,16.989 14.342,16.989 14.147,16.794 L13.397,16.044 C13.185,15.832 12.816,15.832 12.604,16.044 C12.498,16.15 12.44,16.291 12.44,16.44 C12.44,16.589 12.498,16.731 12.604,16.836 L13.854,18.086 C13.951,18.184 14,18.312 14,18.44 C14,18.568 13.951,18.696 13.854,18.794 C13.659,18.989 13.342,18.989 13.147,18.794 L9.97,15.617 C9.758,15.405 9.389,15.406 9.177,15.617 C9.071,15.723 9.012,15.864 9.012,16.013 C9.012,16.162 9.071,16.304 9.177,16.409 L13.853,21.085 C13.996,21.228 14.039,21.443 13.961,21.63 C13.884,21.817 13.701,21.939 13.499,21.939 L11.499,21.939 C10.848,21.94 10.292,22.358 10.085,22.94 Z" id="Shape"></path>
                <path d="M3.5,20.44 C1.57,20.44 0,18.87 0,16.94 C0,15.01 1.57,13.44 3.5,13.44 C5.43,13.44 7,15.01 7,16.94 C7,18.87 5.43,20.44 3.5,20.44 Z M3.5,14.44 C2.122,14.44 1,15.562 1,16.94 C1,18.318 2.122,19.44 3.5,19.44 C4.878,19.44 6,18.318 6,16.94 C6,15.562 4.878,14.44 3.5,14.44 Z" id="Shape"></path>
                <path d="M21.207,6.856 C20.982,6.856 20.777,6.703 20.722,6.474 C20.657,6.205 20.822,5.935 21.09,5.87 C21.361,5.804 21.618,5.694 21.852,5.543 C22.085,5.395 22.394,5.46 22.543,5.693 C22.692,5.925 22.626,6.235 22.393,6.384 C22.065,6.595 21.706,6.749 21.326,6.842 C21.286,6.852 21.246,6.856 21.207,6.856 Z M19.252,6.669 C19.183,6.669 19.112,6.654 19.044,6.624 C18.69,6.462 18.366,6.243 18.083,5.972 C17.883,5.782 17.876,5.465 18.067,5.265 C18.258,5.065 18.575,5.057 18.774,5.249 C18.976,5.442 19.207,5.599 19.461,5.714 C19.712,5.829 19.822,6.125 19.708,6.377 C19.624,6.561 19.442,6.669 19.252,6.669 Z M23.336,4.921 C23.282,4.921 23.227,4.912 23.172,4.894 C22.911,4.804 22.773,4.519 22.863,4.258 C22.954,3.996 23,3.72 23,3.44 C23,3.2 22.967,2.963 22.9,2.736 C22.822,2.471 22.974,2.194 23.239,2.115 C23.507,2.04 23.782,2.19 23.86,2.454 C23.953,2.774 24,3.106 24,3.441 C24,3.833 23.936,4.218 23.809,4.585 C23.737,4.791 23.543,4.921 23.336,4.921 Z M17.529,4.366 C17.284,4.366 17.071,4.186 17.034,3.937 C17.011,3.774 17,3.608 17,3.438 C17,3.212 17.021,2.991 17.063,2.776 C17.115,2.506 17.375,2.329 17.649,2.38 C17.92,2.432 18.097,2.694 18.045,2.966 C18.016,3.12 18,3.278 18,3.44 C18,3.562 18.008,3.68 18.025,3.795 C18.064,4.068 17.875,4.322 17.601,4.361 C17.577,4.364 17.553,4.366 17.529,4.366 Z M18.536,1.672 C18.396,1.672 18.257,1.613 18.158,1.499 C17.977,1.291 18,0.975 18.208,0.795 C18.503,0.539 18.837,0.336 19.198,0.191 C19.454,0.088 19.745,0.213 19.848,0.468 C19.951,0.724 19.827,1.016 19.571,1.118 C19.312,1.222 19.074,1.368 18.862,1.551 C18.769,1.632 18.652,1.672 18.536,1.672 Z M22.24,1.496 C22.139,1.496 22.038,1.466 21.95,1.403 C21.723,1.241 21.472,1.119 21.205,1.041 C20.94,0.963 20.788,0.686 20.866,0.42 C20.944,0.155 21.223,0.004 21.487,0.081 C21.862,0.191 22.214,0.362 22.532,0.59 C22.757,0.751 22.809,1.063 22.648,1.287 C22.549,1.423 22.396,1.496 22.24,1.496 Z" id="Shape"></path>
                <path d="M5,14.44 C4.961,14.44 4.922,14.436 4.882,14.426 C4.613,14.362 4.448,14.092 4.513,13.823 C4.591,13.5 4.728,13.15 4.92,12.781 C5.048,12.536 5.35,12.441 5.595,12.569 C5.84,12.697 5.934,12.999 5.807,13.244 C5.652,13.54 5.544,13.814 5.485,14.057 C5.431,14.286 5.226,14.44 5,14.44 Z M6.493,11.862 C6.382,11.862 6.269,11.825 6.177,11.749 C5.963,11.574 5.932,11.259 6.107,11.045 C6.317,10.789 6.544,10.529 6.785,10.268 C6.973,10.065 7.288,10.053 7.492,10.24 C7.695,10.428 7.707,10.744 7.52,10.947 C7.292,11.193 7.079,11.437 6.881,11.679 C6.781,11.799 6.638,11.862 6.493,11.862 Z M8.572,9.696 C8.437,9.696 8.302,9.642 8.204,9.534 C8.017,9.331 8.031,9.014 8.234,8.827 C8.482,8.599 8.736,8.373 8.996,8.151 C9.206,7.973 9.521,7.995 9.701,8.206 C9.881,8.415 9.856,8.731 9.646,8.911 C9.396,9.127 9.149,9.345 8.911,9.565 C8.814,9.653 8.693,9.696 8.572,9.696 Z M10.883,7.776 C10.732,7.776 10.582,7.708 10.484,7.577 C10.317,7.357 10.361,7.043 10.582,6.877 C10.854,6.671 11.128,6.471 11.403,6.276 C11.629,6.116 11.94,6.17 12.1,6.396 C12.26,6.621 12.206,6.933 11.98,7.093 C11.714,7.281 11.448,7.475 11.184,7.675 C11.094,7.743 10.988,7.776 10.883,7.776 Z M13.365,6.086 C13.196,6.086 13.031,6 12.937,5.845 C12.794,5.609 12.87,5.302 13.106,5.158 C13.407,4.975 13.704,4.804 13.995,4.647 C14.238,4.515 14.541,4.606 14.673,4.848 C14.805,5.091 14.715,5.394 14.472,5.526 C14.195,5.676 13.912,5.839 13.624,6.013 C13.542,6.062 13.453,6.086 13.365,6.086 Z M16.05,4.749 C15.845,4.749 15.653,4.622 15.579,4.418 C15.486,4.158 15.621,3.872 15.881,3.778 C16.263,3.641 16.616,3.545 16.93,3.491 C17.202,3.448 17.46,3.628 17.507,3.901 C17.553,4.173 17.37,4.431 17.097,4.478 C16.841,4.521 16.545,4.603 16.219,4.72 C16.163,4.74 16.106,4.749 16.05,4.749 Z" id="Shape"></path>
            </g>
        </g>
    </g>
</svg>