<?xml version="1.0" encoding="UTF-8" standalone="no"?>
<svg width="24px" height="24px" viewBox="0 0 24 24" version="1.1" xmlns="http://www.w3.org/2000/svg" xmlns:xlink="http://www.w3.org/1999/xlink">
    <!-- Generator: Sketch 48.1 (47250) - http://www.bohemiancoding.com/sketch -->
    <title>Slice 1</title>
    <desc>Created with Sketch.</desc>
    <defs></defs>
    <g id="Page-1" stroke="none" stroke-width="1" fill="none" fill-rule="evenodd">
        <g id="drop" fill="#000000" fill-rule="nonzero">
            <g id="Group">
                <path d="M10.085,23.44 L15.55,23.44 C18.004,23.44 20,21.444 20,18.99 C20,17.802 19.537,16.684 18.697,15.844 L17.147,14.294 C16.928,14.075 16.573,14.075 16.354,14.294 C16.135,14.513 16.135,14.868 16.354,15.087 C16.452,15.185 16.5,15.313 16.5,15.441 C16.5,15.569 16.451,15.697 16.354,15.795 C16.159,15.99 15.842,15.99 15.647,15.795 L15.147,15.295 C14.928,15.076 14.573,15.076 14.354,15.295 C14.248,15.401 14.19,15.542 14.19,15.691 C14.19,15.84 14.248,15.982 14.354,16.087 L14.854,16.587 C14.951,16.684 15,16.812 15,16.94 C15,17.068 14.951,17.196 14.854,17.294 C14.659,17.489 14.342,17.489 14.147,17.294 L13.397,16.544 C13.185,16.332 12.816,16.332 12.604,16.544 C12.498,16.65 12.44,16.791 12.44,16.94 C12.44,17.089 12.498,17.231 12.604,17.336 L13.854,18.586 C13.951,18.684 14,18.812 14,18.94 C14,19.068 13.951,19.196 13.854,19.294 C13.659,19.489 13.342,19.489 13.147,19.294 L9.97,16.117 C9.758,15.905 9.389,15.906 9.177,16.117 C9.071,16.223 9.012,16.364 9.012,16.513 C9.012,16.662 9.071,16.804 9.177,16.909 L13.853,21.585 C13.996,21.728 14.039,21.943 13.961,22.13 C13.884,22.317 13.701,22.439 13.499,22.439 L11.499,22.439 C10.848,22.44 10.292,22.858 10.085,23.44 Z" id="Shape"></path>
                <path d="M3.5,20.94 C1.57,20.94 0,19.37 0,17.44 C0,15.51 1.57,13.94 3.5,13.94 C5.43,13.94 7,15.51 7,17.44 C7,19.37 5.43,20.94 3.5,20.94 Z" id="Shape"></path>
                <path d="M21.207,7.356 C20.982,7.356 20.777,7.203 20.722,6.974 C20.657,6.705 20.822,6.435 21.09,6.37 C21.361,6.304 21.618,6.194 21.852,6.043 C22.085,5.895 22.394,5.96 22.543,6.193 C22.692,6.425 22.626,6.735 22.393,6.884 C22.065,7.095 21.706,7.249 21.326,7.342 C21.286,7.352 21.246,7.356 21.207,7.356 Z M19.252,7.169 C19.183,7.169 19.112,7.154 19.044,7.124 C18.69,6.962 18.366,6.743 18.083,6.472 C17.883,6.282 17.876,5.965 18.067,5.765 C18.258,5.565 18.575,5.557 18.774,5.749 C18.976,5.942 19.207,6.099 19.461,6.214 C19.712,6.329 19.822,6.625 19.708,6.877 C19.624,7.061 19.442,7.169 19.252,7.169 Z M23.336,5.421 C23.282,5.421 23.227,5.412 23.172,5.394 C22.911,5.304 22.773,5.019 22.863,4.758 C22.954,4.496 23,4.22 23,3.94 C23,3.7 22.967,3.463 22.9,3.236 C22.822,2.971 22.974,2.694 23.239,2.615 C23.507,2.54 23.782,2.69 23.86,2.954 C23.953,3.274 24,3.606 24,3.941 C24,4.333 23.936,4.718 23.809,5.085 C23.737,5.291 23.543,5.421 23.336,5.421 Z M17.529,4.866 C17.284,4.866 17.071,4.686 17.034,4.437 C17.011,4.274 17,4.108 17,3.938 C17,3.712 17.021,3.491 17.063,3.276 C17.115,3.006 17.375,2.829 17.649,2.88 C17.92,2.932 18.097,3.194 18.045,3.466 C18.016,3.62 18,3.778 18,3.94 C18,4.062 18.008,4.18 18.025,4.295 C18.064,4.568 17.875,4.822 17.601,4.861 C17.577,4.864 17.553,4.866 17.529,4.866 Z M18.536,2.172 C18.396,2.172 18.257,2.113 18.158,1.999 C17.977,1.791 18,1.475 18.208,1.295 C18.503,1.039 18.837,0.836 19.198,0.691 C19.454,0.588 19.745,0.713 19.848,0.968 C19.951,1.224 19.827,1.516 19.571,1.618 C19.312,1.722 19.074,1.868 18.862,2.051 C18.769,2.132 18.652,2.172 18.536,2.172 Z M22.24,1.996 C22.139,1.996 22.038,1.966 21.95,1.903 C21.723,1.741 21.472,1.619 21.205,1.541 C20.94,1.463 20.788,1.186 20.866,0.92 C20.944,0.655 21.223,0.504 21.487,0.581 C21.862,0.691 22.214,0.862 22.532,1.09 C22.757,1.251 22.809,1.563 22.648,1.787 C22.549,1.923 22.396,1.996 22.24,1.996 Z" id="Shape"></path>
                <path d="M5,14.94 C4.961,14.94 4.922,14.936 4.882,14.926 C4.613,14.862 4.448,14.592 4.513,14.323 C4.592,14 4.729,13.649 4.921,13.28 C5.049,13.035 5.351,12.94 5.596,13.068 C5.841,13.196 5.935,13.498 5.808,13.743 C5.653,14.039 5.545,14.313 5.486,14.556 C5.431,14.786 5.226,14.94 5,14.94 Z M6.493,12.362 C6.382,12.362 6.269,12.325 6.177,12.249 C5.963,12.074 5.932,11.759 6.107,11.545 C6.317,11.289 6.544,11.029 6.785,10.768 C6.973,10.565 7.288,10.553 7.492,10.74 C7.695,10.928 7.707,11.244 7.52,11.447 C7.292,11.693 7.079,11.937 6.881,12.179 C6.781,12.299 6.638,12.362 6.493,12.362 Z M8.572,10.196 C8.437,10.196 8.302,10.142 8.204,10.034 C8.017,9.831 8.031,9.514 8.234,9.327 C8.482,9.099 8.736,8.873 8.996,8.651 C9.206,8.473 9.521,8.495 9.701,8.706 C9.881,8.915 9.856,9.231 9.646,9.411 C9.395,9.626 9.149,9.844 8.91,10.064 C8.814,10.153 8.693,10.196 8.572,10.196 Z M10.883,8.276 C10.732,8.276 10.582,8.208 10.484,8.077 C10.317,7.857 10.361,7.543 10.582,7.377 C10.854,7.171 11.128,6.971 11.403,6.776 C11.629,6.616 11.94,6.67 12.1,6.896 C12.26,7.121 12.206,7.433 11.98,7.593 C11.714,7.781 11.448,7.975 11.184,8.175 C11.094,8.243 10.988,8.276 10.883,8.276 Z M13.365,6.586 C13.196,6.586 13.031,6.5 12.937,6.345 C12.794,6.109 12.87,5.802 13.106,5.658 C13.407,5.475 13.704,5.304 13.995,5.147 C14.238,5.015 14.541,5.106 14.673,5.348 C14.805,5.591 14.715,5.894 14.472,6.026 C14.195,6.176 13.912,6.339 13.624,6.513 C13.542,6.562 13.453,6.586 13.365,6.586 Z M16.05,5.249 C15.845,5.249 15.653,5.122 15.579,4.918 C15.486,4.658 15.621,4.372 15.881,4.278 C16.263,4.141 16.616,4.045 16.93,3.991 C17.202,3.948 17.46,4.128 17.507,4.401 C17.553,4.673 17.37,4.931 17.097,4.978 C16.841,5.021 16.545,5.103 16.219,5.22 C16.163,5.24 16.106,5.249 16.05,5.249 Z" id="Shape"></path>
            </g>
        </g>
    </g>
</svg>