<?xml version="1.0" encoding="UTF-8" standalone="no"?>
<svg width="60px" height="60px" viewBox="0 0 60 60" version="1.1" xmlns="http://www.w3.org/2000/svg" xmlns:xlink="http://www.w3.org/1999/xlink">
    <!-- Generator: Sketch 48.1 (47250) - http://www.bohemiancoding.com/sketch -->
    <title>Shape</title>
    <desc>Created with Sketch.</desc>
    <defs></defs>
    <g id="Page-1" stroke="none" stroke-width="1" fill="none" fill-rule="evenodd">
        <g id="face-rect" fill="#FFFFFF" fill-rule="nonzero">
            <path d="M30,15.6 C22.5,15.6 17.45,20.65 17.45,25.6 C26.3,24.35 33.7,24.35 42.55,25.6 C42.55,20.65 37.5,15.6 30,15.6 Z M19.4,33.1 C16.25,33.1 13.75,35.65 13.75,38.75 C13.75,41.85 16.25,44.4 19.4,44.4 C22.5,44.4 25,41.85 25,38.75 C25,35.65 22.5,33.1 19.4,33.1 Z M40.65,33.1 C37.5,33.1 35,35.65 35,38.75 C35,41.85 37.5,44.4 40.65,44.4 C43.75,44.4 46.25,41.85 46.25,38.75 C46.25,35.65 43.75,33.1 40.65,33.1 Z M10,0 L12.45,0 C15,0 15,0 15,2.5 C15,5 15,5 12.45,5 L10,5 C6.85,5 5,6.85 5,10 L5,12.45 C5,15 5,15 2.5,15 C0,15 0,15 0,12.45 L0,10 C0,3.35 3.35,0 10,0 Z M46.9,0 L50,0 C56.65,0 60,3.35 60,10 L60,12.45 C60,15 60,15 57.5,15 C55,15 55,15 55,12.45 L55,10 C55,6.85 53.15,5 50,5 L47.55,5 C45,5 45,5 45,2.5 C45,0 45,0 46.9,0 Z M2.5,45 C5,45 5,45 5,47.55 L5,50 C5,53.15 6.85,55 10,55 L12.45,55 C15,55 15,55 15,57.5 C15,60 15,60 12.45,60 L10,60 C3.35,60 0,56.65 0,50 L0,47.55 C0,45 0,45 2.5,45 Z M57.5,45 C60,45 60,45 60,47.55 L60,50 C60,56.65 56.65,60 50,60 L47.55,60 C45,60 45,60 45,57.5 C45,55 45,55 47.55,55 L50,55 C53.15,55 55,53.15 55,50 L55,47.55 C55,45 55,45 57.5,45 Z" id="Shape" transform="translate(30.000000, 30.000000) scale(-1, 1) rotate(-180.000000) translate(-30.000000, -30.000000) "></path>
        </g>
    </g>
</svg>