<?xml version="1.0" encoding="UTF-8" standalone="no"?>
<svg width="68px" height="68px" viewBox="0 0 68 68" version="1.1" xmlns="http://www.w3.org/2000/svg" xmlns:xlink="http://www.w3.org/1999/xlink">
    <!-- Generator: Sketch 48.1 (47250) - http://www.bohemiancoding.com/sketch -->
    <title>Slice 1</title>
    <desc>Created with Sketch.</desc>
    <defs></defs>
    <g id="Page-1" stroke="none" stroke-width="1" fill="none" fill-rule="evenodd">
        <g id="face" fill="#A599FF" fill-rule="nonzero">
            <g id="Group">
                <path d="M34,0 C15.3,0 0,15.3 0,34 C0,52.7 15.3,68 34,68 C52.7,68 68,52.7 68,34 C68,15.3 52.7,0 34,0 Z M34,64 C17.5,64 4,50.5 4,34 C4,17.5 17.5,4 34,4 C50.5,4 64,17.5 64,34 C64,50.5 50.5,64 34,64 Z" id="Shape"></path>
                <path d="M44.6,44.6 C38.8,50.4 29.2,50.4 23.4,44.6 C22.6,43.8 21.4,43.8 20.6,44.6 C19.8,45.4 19.8,46.6 20.6,47.4 C24.3,51.1 29.1,53 34,53 C38.9,53 43.7,51.1 47.4,47.4 C48.2,46.6 48.2,45.4 47.4,44.6 C46.6,43.8 45.4,43.8 44.6,44.6 Z" id="Shape"></path>
                <circle id="Oval" cx="24" cy="26" r="5"></circle>
                <circle id="Oval" cx="44" cy="26" r="5"></circle>
            </g>
        </g>
    </g>
</svg>