<?xml version="1.0" encoding="UTF-8" standalone="no"?>
<svg width="50px" height="38px" viewBox="0 0 50 38" version="1.1" xmlns="http://www.w3.org/2000/svg" xmlns:xlink="http://www.w3.org/1999/xlink">
    <!-- Generator: Sketch 48.1 (47250) - http://www.bohemiancoding.com/sketch -->
    <title>Group</title>
    <desc>Created with Sketch.</desc>
    <defs></defs>
    <g id="Page-1" stroke="none" stroke-width="1" fill="none" fill-rule="evenodd">
        <g id="face-blur" fill="#FFFFFF" fill-rule="nonzero">
            <g id="Group">
                <path d="M48.054,15 L49.949,9.316 C50.052,9.011 50,8.676 49.812,8.415 C49.623,8.154 49.321,8 49,8 L40.463,8 C37.015,3.167 31.376,0 25.001,0 C18.625,0 12.986,3.167 9.538,8 L1,8 C0.679,8 0.377,8.154 0.189,8.415 C0.001,8.676 -0.05,9.011 0.051,9.316 L1.946,15 L0.052,20.684 C-0.05,20.99 0.002,21.325 0.19,21.585 C0.378,21.845 0.679,22 1,22 L6.261,22 C7.707,31.053 15.547,38 25,38 C34.453,38 42.293,31.053 43.739,22 L49,22 C49.321,22 49.623,21.846 49.812,21.585 C50,21.324 50.051,20.988 49.949,20.684 L48.054,15 Z M25,2 C30.179,2 34.817,4.335 37.938,8 L12.062,8 C15.183,4.335 19.821,2 25,2 Z M41.949,20 L8.051,20 C8.032,19.667 8,19.337 8,19 C8,15.693 8.964,12.614 10.604,10 L39.395,10 C41.036,12.614 42,15.693 42,19 C42,19.337 41.969,19.667 41.949,20 Z M2.388,20 L3.949,15.316 C4.017,15.111 4.017,14.889 3.949,14.684 L2.388,10 L8.274,10 C6.825,12.681 6,15.746 6,19 C6,19.337 6.033,19.667 6.051,20 L2.388,20 Z M25,36 C16.651,36 9.705,29.945 8.281,22 L41.718,22 C40.296,29.945 33.349,36 25,36 Z M46.052,15.316 L47.612,20 L43.949,20 C43.967,19.667 44,19.337 44,19 C44,15.746 43.175,12.681 41.728,10 L47.613,10 L46.052,14.684 C45.982,14.889 45.982,15.111 46.052,15.316 Z" id="Shape"></path>
                <path d="M21,14 L17,14 C16.448,14 16,14.448 16,15 C16,15.552 16.448,16 17,16 L21,16 C21.552,16 22,15.552 22,15 C22,14.448 21.553,14 21,14 Z" id="Shape"></path>
                <path d="M33,14 L29,14 C28.447,14 28,14.448 28,15 C28,15.552 28.447,16 29,16 L33,16 C33.553,16 34,15.552 34,15 C34,14.448 33.553,14 33,14 Z" id="Shape"></path>
                <path d="M23,30 L27,30 C27.553,30 28,29.553 28,29 C28,28.447 27.553,28 27,28 L23,28 C22.448,28 22,28.447 22,29 C22,29.553 22.448,30 23,30 Z" id="Shape"></path>
            </g>
        </g>
    </g>
</svg>