<?xml version="1.0" encoding="UTF-8" standalone="no"?>
<svg width="40px" height="64px" viewBox="0 0 40 64" version="1.1" xmlns="http://www.w3.org/2000/svg" xmlns:xlink="http://www.w3.org/1999/xlink">
    <!-- Generator: Sketch 48.1 (47250) - http://www.bohemiancoding.com/sketch -->
    <title>Shape</title>
    <desc>Created with Sketch.</desc>
    <defs></defs>
    <g id="Page-1" stroke="none" stroke-width="1" fill="none" fill-rule="evenodd">
        <g id="noun_111193_cc" fill="#FFFFFF" fill-rule="nonzero">
            <path d="M13.798,0.06 C13.547,0.117 13.296,0.314 13.212,0.569 L1.937,32.339 C1.77,32.82 2.188,33.415 2.691,33.415 L11.091,33.415 L0.877,62.892 C0.738,63.232 0.905,63.657 1.184,63.855 C1.491,64.025 1.91,63.997 2.161,63.742 L38.998,23.336 C39.417,22.883 39.026,21.977 38.412,21.977 L23.956,21.977 L33.333,1.165 C33.557,0.684 33.109,0.033 32.579,0.061 L13.966,0.061 C13.91,0.031 13.854,0.031 13.798,0.06 Z M14.496,1.645 L31.352,1.645 L22.003,22.457 C21.808,22.938 22.198,23.561 22.729,23.561 L36.599,23.561 L3.584,59.777 L12.961,32.877 C13.128,32.396 12.71,31.829 12.208,31.802 L3.808,31.802 L14.496,1.645 Z" id="Shape"></path>
        </g>
    </g>
</svg>