<?xml version="1.0" encoding="UTF-8" standalone="no"?>
<svg width="90px" height="36px" viewBox="0 0 90 36" version="1.1" xmlns="http://www.w3.org/2000/svg" xmlns:xlink="http://www.w3.org/1999/xlink">
    <!-- Generator: Sketch 48.1 (47250) - http://www.bohemiancoding.com/sketch -->
    <title>Shape</title>
    <desc>Created with Sketch.</desc>
    <defs></defs>
    <g id="Page-1" stroke="none" stroke-width="1" fill="none" fill-rule="evenodd">
        <g id="glasses-active" fill="#FFFFFF" fill-rule="nonzero">
            <path d="M87.982,13.909 L85.416,13.909 C83.567,6.096 76.564,0.273 68.182,0.273 C59.299,0.273 51.962,6.816 50.676,15.341 C49.21,13.701 47.221,13.227 45,13.227 C42.779,13.227 40.791,13.701 39.324,15.341 C38.038,6.817 30.702,0.273 21.818,0.273 C13.437,0.273 6.433,6.096 4.585,13.909 L2.019,13.909 C0.904,13.909 0,14.812 0,15.927 L0,15.983 C0,17.097 0.904,18 2.019,18 L4.091,18 C4.091,27.792 12.028,35.727 21.819,35.727 C31.61,35.727 39.546,27.792 39.546,18 C39.546,17.996 39.546,17.992 39.546,17.988 C40.554,15.984 42.606,14.591 45.001,14.591 C47.396,14.591 49.448,15.984 50.456,17.988 C50.456,17.992 50.456,17.996 50.456,18 C50.456,27.792 58.393,35.727 68.183,35.727 C77.975,35.727 85.911,27.792 85.911,18 L87.984,18 C89.096,18 90,17.097 90,15.982 L90,15.926 C90,14.812 89.096,13.909 87.982,13.909 M21.818,33.682 C13.171,33.682 6.136,26.648 6.136,18 C6.136,9.354 13.171,2.318 21.818,2.318 C30.465,2.318 37.5,9.354 37.5,18 C37.5,26.648 30.465,33.682 21.818,33.682 M68.182,33.682 C59.535,33.682 52.5,26.648 52.5,18 C52.5,9.354 59.535,2.318 68.182,2.318 C76.829,2.318 83.864,9.353 83.864,18 C83.864,26.648 76.829,33.682 68.182,33.682" id="Shape"></path>
        </g>
    </g>
</svg>