<?xml version="1.0" encoding="UTF-8" standalone="no"?>
<svg width="56px" height="54px" viewBox="0 0 56 54" version="1.1" xmlns="http://www.w3.org/2000/svg" xmlns:xlink="http://www.w3.org/1999/xlink">
    <!-- Generator: Sketch 48.1 (47250) - http://www.bohemiancoding.com/sketch -->
    <title>Shape</title>
    <desc>Created with Sketch.</desc>
    <defs></defs>
    <g id="Page-1" stroke="none" stroke-width="1" fill="none" fill-rule="evenodd">
        <g id="noun_375089_cc" fill="#FFFFFF" fill-rule="nonzero">
            <path d="M2.6,53.3 L14.7,53.3 C15.7,53.3 16.5,52.5 16.5,51.5 L16.5,16.7 C16.5,15.7 15.7,14.9 14.7,14.9 L2.6,14.9 C1.6,14.9 0.8,15.7 0.8,16.7 L0.8,51.6 C0.8,52.5 1.6,53.3 2.6,53.3 Z M4.4,18.4 L12.9,18.4 L12.9,49.7 L4.4,49.7 L4.4,18.4 Z M53.4,53.3 C54.4,53.3 55.2,52.5 55.2,51.5 L55.2,25.9 C55.2,24.9 54.4,24.1 53.4,24.1 L41.3,24.1 C40.3,24.1 39.5,24.9 39.5,25.9 L39.5,51.5 C39.5,52.5 40.3,53.3 41.3,53.3 L53.4,53.3 Z M51.6,49.7 L48.9,49.7 L51.6,47 L51.6,49.7 Z M51.6,44.2 L46.1,49.7 L43.3,49.7 L51.6,41.4 L51.6,44.2 Z M43.1,27.7 L45.8,27.7 L43.1,30.4 L43.1,27.7 Z M43.1,33.2 L48.6,27.7 L51.4,27.7 L43.1,36 L43.1,33.2 Z M43.1,38.8 L51.6,30.3 L51.6,33 L43.1,41.5 L43.1,38.8 Z M43.1,44.4 L51.6,35.9 L51.6,38.7 L43.1,47.2 L43.1,44.4 Z M20.2,51.5 L20.2,2.5 C20.2,1.5 21,0.7 22,0.7 L34,0.7 C35,0.7 35.8,1.5 35.8,2.5 L35.8,51.5 C35.8,52.5 35,53.3 34,53.3 L22,53.3 C21,53.3 20.2,52.5 20.2,51.5 Z" id="Shape"></path>
        </g>
    </g>
</svg>