<?xml version="1.0" encoding="UTF-8" standalone="no"?>
<svg width="90px" height="90px" viewBox="0 0 90 90" version="1.1" xmlns="http://www.w3.org/2000/svg" xmlns:xlink="http://www.w3.org/1999/xlink">
    <!-- Generator: Sketch 48.1 (47250) - http://www.bohemiancoding.com/sketch -->
    <title>Slice 1</title>
    <desc>Created with Sketch.</desc>
    <defs></defs>
    <g id="Page-1" stroke="none" stroke-width="1" fill="none" fill-rule="evenodd">
        <g id="sad" fill="#000000" fill-rule="nonzero">
            <circle id="Oval" cx="60.3" cy="32.3" r="6.1"></circle>
            <circle id="Oval" cx="29.7" cy="32.3" r="6.1"></circle>
            <path d="M45,0 C20.1,0 0,20.1 0,45 C0,69.9 20.1,90 45,90 C69.9,90 90,69.9 90,45 C90,20.1 69.9,0 45,0 Z M45,82.5 C24.3,82.5 7.5,65.7 7.5,45 C7.5,24.3 24.3,7.5 45,7.5 C65.7,7.5 82.5,24.3 82.5,45 C82.5,65.7 65.7,82.5 45,82.5 Z" id="Shape"></path>
            <path d="M62.4,69.8 C61.1,69.8 59.9,69.1 59.2,67.9 C56.3,62.7 50.9,59.5 45,59.5 C39.1,59.5 33.6,62.7 30.8,67.9 C29.8,69.7 27.6,70.3 25.8,69.3 C24,68.3 23.4,66.1 24.4,64.3 C28.5,56.8 36.5,52.1 45,52.1 C53.6,52.1 61.5,56.8 65.6,64.3 C66.6,66.1 65.9,68.3 64.2,69.3 C63.6,69.6 63,69.8 62.4,69.8 Z" id="Shape"></path>
        </g>
    </g>
</svg>