<?xml version="1.0" encoding="UTF-8" standalone="no"?>
<svg width="84px" height="30px" viewBox="0 0 84 30" version="1.1" xmlns="http://www.w3.org/2000/svg" xmlns:xlink="http://www.w3.org/1999/xlink">
    <!-- Generator: Sketch 48.1 (47250) - http://www.bohemiancoding.com/sketch -->
    <title>noun_733663_cc</title>
    <desc>Created with Sketch.</desc>
    <defs></defs>
    <g id="Page-1" stroke="none" stroke-width="1" fill="none" fill-rule="evenodd">
        <g id="noun_733663_cc" transform="translate(-1.000000, 0.000000)" fill="#000000" fill-rule="nonzero">
            <path d="M84.9,3.887 C84.9,3.831 84.886,3.777 84.886,3.721 C84.768,2.673 84.651,2.499 83.571,2.424 C80.36,2.187 77.198,1.664 74.006,1.356 C72.609,1.221 71.22,1.055 69.823,0.967 C67.663,0.835 65.498,0.945 63.338,0.987 C61.705,1.019 60.088,1.234 58.455,1.425 C56.7,1.631 54.985,2.051 53.24,2.302 C51.96,2.486 50.738,2.874 49.497,3.172 C47.356,3.699 45.186,3.937 43.006,3.993 C40.816,3.937 38.656,3.7 36.506,3.172 C35.269,2.874 34.048,2.485 32.762,2.302 C31.017,2.05 29.307,1.63 27.552,1.425 C25.93,1.235 24.307,1.019 22.67,0.987 C20.505,0.946 18.34,0.836 16.184,0.967 C14.786,1.055 13.398,1.221 12.001,1.356 C8.809,1.664 5.638,2.187 2.441,2.424 C1.352,2.5 1.234,2.673 1.126,3.721 C1.117,3.778 1.102,3.831 1.102,3.887 C1.019,5.163 0.906,6.436 1.019,7.719 C1.058,8.178 1.278,8.44 1.728,8.569 C2.773,8.874 3.379,9.549 3.614,10.595 C3.888,11.834 4.098,13.08 4.298,14.329 C4.723,16.929 5.315,19.485 6.312,21.941 C7.372,24.517 9.147,26.413 11.786,27.495 C13.917,28.37 16.161,28.802 18.453,29.005 C20.911,29.222 23.359,29.034 25.774,28.568 C28.706,28.004 31.306,26.791 33.486,24.782 C35.939,22.509 37.45,19.653 38.705,16.647 C39.297,15.254 39.742,13.815 40.23,12.386 C40.665,11.137 41.618,10.211 43.006,10.011 C44.384,10.211 45.342,11.138 45.772,12.386 C46.261,13.815 46.71,15.255 47.297,16.647 C48.548,19.653 50.064,22.509 52.522,24.782 C54.696,26.791 57.311,28.003 60.234,28.568 C62.653,29.034 65.092,29.223 67.555,29.005 C69.837,28.802 72.095,28.37 74.216,27.495 C76.861,26.412 78.635,24.516 79.685,21.941 C80.697,19.485 81.279,16.929 81.708,14.329 C81.908,13.08 82.114,11.834 82.388,10.595 C82.618,9.549 83.233,8.874 84.284,8.569 C84.724,8.439 84.944,8.178 84.983,7.719 C85.091,6.436 84.983,5.163 84.9,3.887 Z" id="Shape"></path>
        </g>
    </g>
</svg>