<?xml version="1.0" encoding="UTF-8" standalone="no"?>
<svg width="90px" height="90px" viewBox="0 0 90 90" version="1.1" xmlns="http://www.w3.org/2000/svg" xmlns:xlink="http://www.w3.org/1999/xlink">
    <!-- Generator: Sketch 48.1 (47250) - http://www.bohemiancoding.com/sketch -->
    <title>Shape</title>
    <desc>Created with Sketch.</desc>
    <defs></defs>
    <g id="Page-1" stroke="none" stroke-width="1" fill="none" fill-rule="evenodd">
        <g id="smile" transform="translate(0.000000, -1.000000)" fill="#FFFFFF" fill-rule="nonzero">
            <g id="Group" transform="translate(0.000000, 0.637820)">
                <path d="M45,0.36218 C20.182719,0.36218 0,20.54488 0,45.36218 C0,70.17948 20.182719,90.36218 45,90.36218 C69.81728,90.36218 90,70.17948 90,45.36218 C90,20.54488 69.81728,0.36218 45,0.36218 Z M45,6.36218 C66.574639,6.36218 84,23.78752 84,45.36218 C84,66.93678 66.574639,84.36218 45,84.36218 C23.425361,84.36218 6,66.93678 6,45.36218 C6,23.78752 23.425361,6.36218 45,6.36218 Z M31,24.36218 C27.16954,24.36218 24,27.53172 24,31.36218 C24,35.19264 27.16954,38.36218 31,38.36218 C34.830461,38.36218 38,35.19264 38,31.36218 C38,27.53172 34.830461,24.36218 31,24.36218 Z M59,24.36218 C55.169543,24.36218 52,27.53172 52,31.36218 C52,35.19263 55.169543,38.36218 59,38.36218 C62.830458,38.36218 66,35.19263 66,31.36218 C66,27.53172 62.830458,24.36218 59,24.36218 Z M31,30.36218 C31.587817,30.36218 32,30.77436 32,31.36218 C32,31.95 31.587817,32.36218 31,32.36218 C30.412183,32.36218 30,31.95 30,31.36218 C30,30.77436 30.412183,30.36218 31,30.36218 Z M59,30.36218 C59.587817,30.36218 60,30.77436 60,31.36218 C60,31.94999 59.587817,32.36218 59,32.36218 C58.412184,32.36218 58,31.94999 58,31.36218 C58,30.77436 58.412184,30.36218 59,30.36218 Z M18.6875,43.36218 C17.181057,43.518412 15.928973,44.974324 16,46.48718 C16.410815,55.67198 19.285575,64.01933 24.28125,70.20593 C29.276925,76.39243 36.536605,80.36218 45,80.36218 C53.463396,80.36218 60.723075,76.39243 65.71875,70.20593 C70.714425,64.01933 73.589185,55.67198 74,46.48718 C74.067053,44.875278 72.613296,43.360947 71,43.36218 C53.57047,43.362179 36.094383,43.36218 18.6875,43.36218 Z M22.34375,49.36218 L67.65625,49.36218 C66.84231,56.12568 64.523401,62.13123 61.03125,66.45593 C56.997499,71.45123 51.646342,74.36218 45,74.36218 C38.353658,74.36218 33.002501,71.45123 28.96875,66.45593 C25.476599,62.13123 23.15769,56.12568 22.34375,49.36218 Z" id="Shape"></path>
            </g>
        </g>
    </g>
</svg>